<?xml version="1.0" standalone="no"?>
<!DOCTYPE svg PUBLIC "-//W3C//DTD SVG 20010904//EN"
 "http://www.w3.org/TR/2001/REC-SVG-20010904/DTD/svg10.dtd">
<svg version="1.0" xmlns="http://www.w3.org/2000/svg"
 width="160.000000pt" height="160.000000pt" viewBox="0 0 160.000000 160.000000"
 preserveAspectRatio="xMidYMid meet">
<metadata>
Created by potrace 1.14, written by Peter Selinger 2001-2017
</metadata>
<g transform="translate(0.000000,160.000000) scale(0.100000,-0.100000)"
fill="#000000" stroke="none">
<path d="M1025 1334 c-44 -14 -117 -36 -162 -50 l-83 -25 155 -124 c85 -69
160 -125 167 -125 28 0 348 116 345 125 -7 20 -299 225 -320 224 -12 0 -58
-12 -102 -25z m139 -30 c12 -30 -57 -41 -90 -13 -20 16 -17 28 8 38 27 10 74
-4 82 -25z m-206 -47 c18 -14 15 -35 -7 -42 -28 -9 -70 5 -82 26 -8 16 -6 21
13 28 24 9 56 4 76 -12z m292 -15 c29 -23 19 -42 -21 -42 -37 0 -69 16 -69 35
0 28 58 33 90 7z m-193 -64 c21 -17 15 -35 -12 -42 -25 -7 -64 7 -77 28 -20
29 57 41 89 14z m298 -12 c12 -8 16 -19 11 -31 -5 -14 -14 -16 -43 -12 -41 7
-69 29 -59 46 10 15 68 14 91 -3z m-217 -57 c64 -22 34 -67 -33 -48 -16 5 -31
9 -31 9 -1 0 -5 7 -8 15 -4 10 2 19 17 25 12 5 22 9 23 9 1 1 15 -4 32 -10z"/>
<path d="M756 1223 c-2 -10 -15 -70 -27 -134 -12 -64 -25 -122 -29 -129 -5 -8
-26 1 -71 30 -80 52 -105 50 -191 -16 -81 -61 -84 -64 -71 -64 6 0 34 18 62
40 50 40 86 51 93 29 4 -11 -26 -141 -37 -164 -5 -11 4 51 12 79 3 11 1 16 -5
12 -5 -3 -13 -23 -16 -43 -4 -21 -10 -46 -13 -57 -4 -13 -2 -16 7 -11 19 12 5
-53 -19 -85 -26 -35 -133 -108 -138 -93 -3 7 -20 1 -49 -19 -25 -17 -43 -32
-40 -35 2 -2 16 3 30 12 14 10 26 15 26 12 0 -10 -101 -67 -110 -62 -13 8 108
296 138 328 14 15 21 27 14 27 -23 0 -61 -69 -123 -222 l-63 -158 20 -27 c28
-39 318 -231 360 -239 23 -4 50 -1 78 10 58 22 225 134 248 166 10 14 30 69
45 122 15 54 30 98 33 98 3 0 17 -11 32 -25 32 -30 43 -31 45 -7 1 15 44 215
78 368 4 17 -16 37 -103 106 -59 47 -130 104 -159 127 -44 36 -52 39 -57 24z
m47 -65 c19 -15 30 -67 18 -86 -25 -40 -82 38 -60 81 11 20 20 21 42 5z m200
-166 c16 -18 22 -40 19 -75 -3 -28 -44 -17 -60 15 -9 18 -9 34 -2 52 11 31 21
32 43 8z m-264 -91 c163 -109 181 -125 180 -149 0 -14 -2 -14 -6 -2 -8 20 -34
50 -45 50 -5 0 0 -12 11 -27 10 -16 22 -46 25 -68 4 -25 3 -35 -2 -27 -8 11
-10 11 -15 -2 -4 -9 -2 -16 4 -16 16 0 -1 -85 -32 -168 -19 -50 -48 -40 -236
84 -151 99 -152 101 -118 252 33 148 43 172 66 172 11 0 86 -45 168 -99z m150
28 c16 -29 8 -79 -13 -79 -31 0 -61 64 -44 94 13 23 39 16 57 -15z m71 -208
c15 -29 12 -71 -6 -78 -24 -9 -33 9 -27 55 6 46 16 53 33 23z m-447 -86 c38
-26 49 -42 22 -31 -8 3 -15 1 -15 -3 0 -13 28 -21 32 -9 4 11 187 -100 231
-140 48 -45 39 -57 -108 -149 -67 -42 -153 -74 -139 -52 3 5 16 9 30 9 13 0
24 3 24 8 0 4 -18 6 -39 4 -21 -2 -48 1 -60 7 -25 14 -28 4 -3 -16 30 -25 -9
-3 -123 71 -82 53 -104 72 -88 74 46 7 38 62 -9 62 -28 0 -30 -2 -26 -29 l4
-30 -26 19 c-49 35 -56 49 -34 70 32 32 189 128 194 119 3 -4 12 -4 20 1 20
13 67 12 91 0 11 -6 19 -7 19 -1 0 9 -23 21 -48 27 -7 1 -26 -1 -42 -6 -35
-10 -40 -3 -7 10 37 15 61 11 100 -15z m-208 -35 c-3 -5 -11 -10 -16 -10 -6 0
-7 5 -4 10 3 6 11 10 16 10 6 0 7 -4 4 -10z"/>
<path d="M569 948 c-6 -28 -4 -39 12 -54 18 -17 21 -17 37 -1 13 13 14 21 6
35 -9 14 -52 30 -55 20z"/>
<path d="M693 844 c-8 -22 9 -48 36 -52 20 -3 26 6 21 38 -4 31 -47 41 -57 14z"/>
<path d="M821 762 c-13 -24 4 -52 33 -52 31 0 41 28 20 51 -21 24 -41 24 -53
1z"/>
<path d="M527 743 c-14 -14 -6 -43 15 -54 18 -9 24 -8 34 6 23 32 -22 76 -49
48z"/>
<path d="M651 646 c-17 -20 3 -56 30 -56 24 0 36 27 22 49 -14 22 -37 25 -52
7z"/>
<path d="M779 564 c-17 -21 0 -49 32 -49 29 0 36 26 14 49 -20 20 -29 20 -46
0z"/>
<path d="M413 564 c-6 -17 6 -45 23 -51 5 -2 19 3 29 11 16 12 18 18 9 33 -15
24 -52 29 -61 7z"/>
<path d="M644 418 c-7 -22 19 -52 40 -45 21 7 30 35 17 51 -19 23 -48 20 -57
-6z"/>
<path d="M494 335 c-10 -25 4 -45 31 -45 30 0 43 24 25 45 -16 19 -49 19 -56
0z"/>
<path d="M1276 1039 c-93 -32 -171 -60 -172 -62 -2 -1 -5 -14 -8 -27 -2 -14
-16 -79 -31 -145 -42 -194 -48 -225 -44 -230 2 -2 84 26 181 62 l177 66 15 71
c9 39 18 80 20 91 7 33 47 199 52 218 3 10 0 17 -8 16 -7 0 -89 -27 -182 -60z
m154 -22 c0 -29 -34 -67 -60 -67 -27 0 -27 43 0 70 28 28 60 26 60 -3z m-141
-146 c20 -13 6 -55 -25 -76 -23 -15 -28 -15 -41 -2 -12 12 -13 19 -2 38 11 23
38 48 49 49 3 0 11 -4 19 -9z m-139 -188 c0 -34 -26 -63 -57 -63 -33 0 -31 42
3 69 36 29 54 27 54 -6z"/>
<path d="M426 918 c-21 -30 -2 -52 20 -24 16 23 19 46 5 46 -6 0 -17 -10 -25
-22z"/>
<path d="M307 842 c-9 -10 -17 -24 -17 -30 0 -20 29 -13 41 9 15 29 -3 45 -24
21z"/>
<path d="M326 778 c-8 -12 -13 -25 -10 -30 9 -14 44 12 44 32 0 26 -15 25 -34
-2z"/>
<path d="M380 741 c-15 -29 -12 -41 9 -41 19 0 31 18 31 46 0 21 -28 17 -40
-5z"/>
<path d="M246 659 c-20 -29 -20 -39 -1 -39 19 0 40 39 27 52 -6 6 -15 2 -26
-13z"/>
</g>
</svg>
