<svg xmlns="http://www.w3.org/2000/svg" height="40" width="40"><path d="m30.75 25.458-2.708-2.708q.583-.958.875-2.083.291-1.125.291-2.459h3.709q0 1.959-.563 3.854-.562 1.896-1.604 3.396ZM25 19.75 14.333 9.125V7.083q.292-1.875 1.792-3.208 1.5-1.333 3.542-1.333 2.291 0 3.916 1.604t1.625 3.896v10.291q0 .334-.062.771-.063.438-.146.646Zm-7.167 16.917v-5.542q-4.958-.542-8.187-4.229-3.229-3.688-3.229-8.688h3.75q0 3.917 2.771 6.646 2.77 2.729 6.729 2.729 1.833 0 3.437-.666 1.604-.667 2.896-1.75l2.708 2.708q-1.458 1.333-3.291 2.187-1.834.855-3.875 1.063v5.542Zm16.125 1-32.5-32.5 2.292-2.25 32.5 32.458Z"/></svg>